<?xml version="1.0" encoding="UTF-8" standalone="no"?>
<!-- Created with Inkscape (http://www.inkscape.org/) -->

<svg
   id="goldenDisk"
   width="105"
   heigth="105"
   version="1.1"
   xml:space="preserve"
   sodipodi:docname="gr_goldenDisk.svg"
   inkscape:version="1.2.1 (9c6d41e410, 2022-07-14)"
   viewBox="0 0 105 105"
   xmlns:inkscape="http://www.inkscape.org/namespaces/inkscape"
   xmlns:sodipodi="http://sodipodi.sourceforge.net/DTD/sodipodi-0.dtd"
   xmlns="http://www.w3.org/2000/svg"
   xmlns:svg="http://www.w3.org/2000/svg"><defs
   id="defs18515" /><sodipodi:namedview
   id="namedview18513"
   pagecolor="#ffffff"
   bordercolor="#111111"
   borderopacity="1"
   inkscape:showpageshadow="0"
   inkscape:pageopacity="0"
   inkscape:pagecheckerboard="1"
   inkscape:deskcolor="#d1d1d1"
   showgrid="false"
   inkscape:zoom="2.2250293"
   inkscape:cx="91.684186"
   inkscape:cy="115.95353"
   inkscape:current-layer="g18528" />
				<!-- center of rotation --><animateTransform
   attributeName="transform"
   attributeType="XML"
   dur="0.4s"
   from="0,0,0"
   repeatCount="indefinite"
   to="359,0,0"
   type="rotate" /><g
   id="g18528"
   inkscape:transform-center-y="-0.14445301"
   transform="translate(-9.8228045,13.867489)"><g
     id="gDisc"
     transform="translate(12.365736,-11.383121)"><circle
       cx="50"
       cy="50"
       r="3"
       style="fill:#000000"
       id="circle18911" /><path
       id="path4"
       d="m 46.557,0.13988 c -3.2759,0.26401 -6.5287,0.78422 -9.7031,1.6425 -4.3575,1.1985 -8.556,2.9692 -12.444,5.2761 -3.9142,2.3323 -7.5046,5.2001 -10.654,8.4929 -3.1297,3.2948 -5.8089,7.0127 -7.946,11.024 -2.1131,3.9926 -3.692,8.2661 -4.6643,12.679 -0.97896,4.4477 -1.3509,9.0281 -1.0973,13.577 0.26111,4.5473 1.1457,9.0556 2.6121,13.368 1.4871,4.3392 3.5805,8.466 6.1774,12.247 2.5909,3.7332 5.6867,7.112 9.1779,10.022 3.5089,2.9066 7.4124,5.3308 11.57,7.1969 4.1629,1.8467 8.5719,3.1318 13.078,3.803 4.4588,0.64679 9.0022,0.70473 13.474,0.14538 4.5194,-0.56179 8.9571,-1.7536 13.158,-3.5122 4.2309,-1.7749 8.2071,-4.1439 11.803,-6.9943 3.5567,-2.8435 6.7258,-6.1677 9.3956,-9.8576 2.6538,-3.696 4.806,-7.7492 6.3782,-12.02 1.5637,-4.2708 2.5385,-8.7531 2.9042,-13.287 0.95638,-11.428 -2.2395,-23.135 -8.8208,-32.523 -7.1526,-10.335 -18.354,-17.752 -30.657,-20.312 -4.511,-0.97068 -9.1387,-1.2517 -13.74,-0.96751 z"
       style="fill:#000000;fill-rule:evenodd" /><path
       id="path6"
       d="m 46.75,2.9778 c -3.0895,0.24899 -6.1573,0.7396 -9.151,1.5491 -4.1095,1.1304 -8.0692,2.8002 -11.736,4.9759 -3.6915,2.1996 -7.0776,4.9042 -10.048,8.0097 -2.9516,3.1074 -5.4784,6.6137 -7.4939,10.397 -1.9928,3.7655 -3.482,7.7958 -4.3988,11.958 -0.92325,4.1947 -1.274,8.5145 -1.0348,12.804 0.24625,4.2885 1.0805,8.5404 2.4635,12.608 1.4025,4.0923 3.3767,7.9843 5.8259,11.55 2.4434,3.5208 5.3632,6.7073 8.6557,9.4517 3.3092,2.7412 6.9906,5.0274 10.912,6.7873 3.926,1.7416 8.0842,2.9536 12.333,3.5865 4.2051,0.60998 8.49,0.66463 12.707,0.13711 4.2622,-0.52982 8.4474,-1.6538 12.41,-3.3123 3.9901,-1.6739 7.7401,-3.9081 11.131,-6.5964 3.3543,-2.6817 6.3431,-5.8168 8.861,-9.2968 2.5029,-3.4857 4.5325,-7.3083 6.0152,-11.336 1.4747,-4.0278 2.3941,-8.2549 2.739,-12.53 0.90196,-10.778 -2.1121,-21.818 -8.319,-30.672 -6.7456,-9.7471 -17.308,-16.743 -28.914,-19.157 -4.2543,-0.91545 -8.6187,-1.1805 -12.959,-0.91245 z"
       style="fill:#dfbe00;fill-rule:evenodd" /><path
       id="path8"
       d="M 49.92,49.995 15.68,17.697 C 21.7062,11.812 27.697,7.374 34.236,5.523 Z"
       style="fill:#c19c00;fill-rule:evenodd" /><path
       id="path10"
       d="M 49.922,49.996 8.751,27.183 c 4.4548,-7.194 9.5156,-12.977 14.964,-16.39 z"
       style="fill:#fce100;fill-rule:evenodd" /><path
       id="path12"
       d="M 50.008,49.989 63.991,94.933 C 71.9393,92.0306 78.63,88.2487 83.076,83.607 Z"
       style="fill:#c19c00;fill-rule:evenodd" /><path
       id="path14"
       d="m 50.009,49.991 22.813,41.171 c 7.194,-4.4548 12.977,-9.5156 16.39,-14.964 z"
       style="fill:#fce100;fill-rule:evenodd" /><path
       id="path16"
       d="m 49.052,36.741 c -0.87194,0.07028 -1.7378,0.20875 -2.5827,0.43719 -1.1598,0.31902 -2.2774,0.79028 -3.3122,1.4043 -1.0418,0.62079 -1.9975,1.384 -2.8359,2.2606 -0.83302,0.87696 -1.5462,1.8665 -2.1149,2.9342 -0.56244,1.0627 -0.98272,2.2002 -1.2415,3.3747 -0.26057,1.1838 -0.35957,2.403 -0.29206,3.6136 0.06951,1.2103 0.30493,2.4104 0.69527,3.5581 0.39583,1.155 0.95302,2.2533 1.6443,3.2597 0.68961,0.99367 1.5137,1.893 2.4428,2.6674 0.93396,0.77362 1.973,1.4189 3.0795,1.9154 1.108,0.49151 2.2816,0.8336 3.4808,1.0122 1.1868,0.17216 2.3962,0.18757 3.5864,0.0385 1.2029,-0.14954 2.384,-0.46677 3.5023,-0.93482 1.1261,-0.47241 2.1845,-1.103 3.1413,-1.8616 0.94669,-0.75687 1.7903,-1.6416 2.5007,-2.6238 0.70638,-0.98374 1.2792,-2.0625 1.6976,-3.1994 0.41621,-1.1367 0.67567,-2.3298 0.77303,-3.5365 0.25455,-3.0418 -0.59608,-6.1576 -2.3478,-8.6563 -1.9038,-2.7509 -4.885,-4.7251 -8.1602,-5.4065 -1.2007,-0.25836 -2.4325,-0.33312 -3.6572,-0.25752 z"
       style="fill:#ceab00;fill-rule:evenodd" /><path
       id="path18"
       d="m 49.187,38.729 c -0.7413,0.05974 -1.4773,0.17748 -2.1957,0.37168 -0.98605,0.27122 -1.936,0.67187 -2.8159,1.1939 -0.88573,0.52778 -1.6982,1.1767 -2.4109,1.9219 -0.70822,0.74558 -1.3145,1.5869 -1.7981,2.4946 -0.47818,0.90348 -0.83549,1.8706 -1.0555,2.8691 -0.22153,1.0065 -0.30568,2.0429 -0.24829,3.0721 0.05909,1.029 0.25925,2.0492 0.5911,3.0252 0.33652,0.9819 0.81024,1.9157 1.3979,2.7713 0.58628,0.84478 1.2869,1.6093 2.0769,2.2678 0.79403,0.65771 1.6773,1.2063 2.618,1.6286 0.94201,0.41787 1.9398,0.7087 2.9592,0.86056 1.009,0.14637 2.0372,0.15946 3.0491,0.03273 1.0227,-0.12714 2.0269,-0.39683 2.9776,-0.79475 0.95738,-0.40162 1.8572,-0.93771 2.6707,-1.5827 0.80485,-0.64345 1.5219,-1.3957 2.1262,-2.2307 0.60053,-0.83633 1.0876,-1.7535 1.4434,-2.72 0.35383,-0.96643 0.57443,-1.9807 0.6572,-3.0066 0.21641,-2.5861 -0.50676,-5.235 -1.996,-7.3593 -1.6185,-2.3388 -4.1532,-4.0172 -6.9376,-4.5964 -1.0208,-0.21964 -2.0679,-0.28322 -3.1092,-0.21894 z"
       style="fill:#f8dc00;fill-rule:evenodd" /><path
       id="path20"
       d="m 49.581,44.502 c -0.36209,0.02918 -0.72161,0.08668 -1.0725,0.18154 -0.48162,0.13247 -0.94568,0.32818 -1.3754,0.58316 -0.43263,0.25778 -0.82949,0.57475 -1.1776,0.9387 -0.34592,0.36416 -0.64205,0.77509 -0.87827,1.2184 -0.23356,0.4413 -0.40808,0.91363 -0.51553,1.4014 -0.1082,0.49159 -0.14932,0.99785 -0.12128,1.5005 0.02886,0.5026 0.12663,1.0009 0.2887,1.4776 0.16438,0.4796 0.39575,0.93572 0.68278,1.3536 0.28636,0.41262 0.62855,0.78608 1.0144,1.1077 0.38783,0.32124 0.81928,0.58919 1.2788,0.79544 0.46012,0.20411 0.94744,0.34617 1.4454,0.42032 0.49283,0.07149 0.995,0.07788 1.4893,0.01594 0.49953,-0.06209 0.99002,-0.19382 1.4544,-0.38819 0.46763,-0.19617 0.90712,-0.45802 1.3045,-0.77306 0.39312,-0.31428 0.7434,-0.68169 1.0385,-1.0896 0.29333,-0.40849 0.5312,-0.8565 0.70498,-1.3285 0.17282,-0.47204 0.28058,-0.96745 0.32101,-1.4685 0.10571,-1.2631 -0.24752,-2.5571 -0.97496,-3.5945 -0.79057,-1.1423 -2.0285,-1.9622 -3.3885,-2.2451 -0.4986,-0.10728 -1.0101,-0.13833 -1.5187,-0.10695 z"
       style="fill:#000000;fill-rule:evenodd" /></g></g></svg>
